<svg width="50" height="50" viewBox="0 0 50 50" fill="none" xmlns="http://www.w3.org/2000/svg">
<path fill-rule="evenodd" clip-rule="evenodd" d="M25 49C38.2548 49 49 38.2548 49 25C49 11.7452 38.2548 1 25 1C11.7452 1 1 11.7452 1 25C1 38.2548 11.7452 49 25 49Z" fill="#F8F8F8" stroke="black" stroke-width="2"/>
<path fill-rule="evenodd" clip-rule="evenodd" d="M30.3335 19.6666C30.3335 22.6133 27.9468 24.9999 25.0002 24.9999C22.0535 24.9999 19.6668 22.6133 19.6668 19.6666C19.6668 16.7199 22.0535 14.3333 25.0002 14.3333C27.9468 14.3333 30.3335 16.7199 30.3335 19.6666ZM14.3335 32.9999C14.3335 29.4533 21.4402 27.6666 25.0002 27.6666C28.5602 27.6666 35.6668 29.4533 35.6668 32.9999V34.3333C35.6668 35.0666 35.0668 35.6666 34.3335 35.6666H15.6668C14.9335 35.6666 14.3335 35.0666 14.3335 34.3333V32.9999Z" fill="black"/>
</svg>
