<svg width="24" height="20" viewBox="0 0 24 20" fill="none" xmlns="http://www.w3.org/2000/svg">
<path fill-rule="evenodd" clip-rule="evenodd" d="M7.4091 6.29186L12.9491 0.751863C13.5291 0.161863 14.4691 0.161863 15.0591 0.741863C15.4191 1.10186 15.5691 1.61186 15.4691 2.11186L14.5191 6.69186H20.1691C22.3191 6.69186 23.7691 8.89186 22.9291 10.8719L19.6691 18.4819C19.3491 19.2119 18.6291 19.6919 17.8291 19.6919H8.8291C7.7291 19.6919 6.8291 18.7919 6.8291 17.6919V7.70186C6.8291 7.17186 7.0391 6.66186 7.4091 6.29186ZM4.8291 17.6919C4.8291 18.7919 3.9291 19.6919 2.8291 19.6919C1.7291 19.6919 0.829102 18.7919 0.829102 17.6919V9.69186C0.829102 8.59186 1.7291 7.69186 2.8291 7.69186C3.9291 7.69186 4.8291 8.59186 4.8291 9.69186V17.6919Z" fill="#616161"/>
</svg>
