<svg width="22" height="18" viewBox="0 0 22 18" fill="none" xmlns="http://www.w3.org/2000/svg">
<path fill-rule="evenodd" clip-rule="evenodd" d="M3.14407 9.00178C3.14407 3.95178 7.31407 -0.138219 12.4041 0.00178116C17.0941 0.131781 21.0141 4.05178 21.1441 8.74178C21.2841 13.8318 17.1941 18.0018 12.1441 18.0018C10.0541 18.0018 8.14407 17.2918 6.62407 16.0918C6.15407 15.7318 6.12407 15.0218 6.54407 14.6018C6.90407 14.2418 7.46407 14.2118 7.86407 14.5218C9.04407 15.4518 10.5341 16.0018 12.1441 16.0018C16.0441 16.0018 19.1941 12.8118 19.1441 8.90178C19.0941 5.18178 15.9641 2.05178 12.2441 2.00178C8.32407 1.95178 5.14407 5.10178 5.14407 9.00178H6.93407C7.38407 9.00178 7.60407 9.54178 7.29407 9.85178L4.50407 12.6518C4.30407 12.8518 3.99407 12.8518 3.79407 12.6518L1.00407 9.85178C0.684073 9.54178 0.904073 9.00178 1.35407 9.00178H3.14407ZM11.1441 5.75178C11.1441 5.34178 11.4841 5.00178 11.8941 5.00178C12.3041 5.00178 12.6441 5.34178 12.6441 5.74178V9.14178L15.5241 10.8518C15.8741 11.0618 15.9941 11.5218 15.7841 11.8818C15.5741 12.2318 15.1141 12.3518 14.7541 12.1418L11.6341 10.2918C11.3341 10.1118 11.1441 9.78178 11.1441 9.43178V5.75178Z" fill="#616161"/>
</svg>
