<svg width="32" height="40" viewBox="0 0 32 40" fill="none" xmlns="http://www.w3.org/2000/svg">
<path fill-rule="evenodd" clip-rule="evenodd" d="M28.0025 17.5V27.5L30.5825 30.08C31.8425 31.34 30.9425 33.5 29.1625 33.5H2.82254C1.04254 33.5 0.162544 31.34 1.42254 30.08L4.00254 27.5V17.5C4.00254 11.34 7.26254 6.22 13.0025 4.86V3.5C13.0025 1.84 14.3425 0.5 16.0025 0.5C17.6625 0.5 19.0025 1.84 19.0025 3.5V4.86C24.7225 6.22 28.0025 11.36 28.0025 17.5ZM20.0025 35.5C20.0025 37.7 18.2025 39.5 16.0025 39.5C13.7825 39.5 12.0025 37.7 12.0025 35.5H20.0025Z" fill="black"/>
</svg>
