<svg width="16" height="16" viewBox="0 0 16 16" fill="none" xmlns="http://www.w3.org/2000/svg">
<path fill-rule="evenodd" clip-rule="evenodd" d="M0.256836 1.67398C0.256836 0.843982 0.986836 0.173982 1.81684 0.263982C9.16684 0.993982 15.0068 6.84398 15.7368 14.184C15.8168 15.014 15.1568 15.744 14.3168 15.744C13.5868 15.744 12.9868 15.194 12.9168 14.464C12.3168 8.45398 7.53684 3.67398 1.52684 3.07398C0.806836 3.00398 0.256836 2.40398 0.256836 1.67398ZM1.84684 5.97398C1.00684 5.83398 0.256836 6.52398 0.256836 7.37398C0.256836 8.08398 0.786836 8.65398 1.48684 8.77398C4.40684 9.28398 6.70684 11.594 7.22684 14.514C7.34684 15.214 7.91684 15.744 8.62684 15.744C9.47684 15.744 10.1668 14.994 10.0368 14.154C9.35684 9.95398 6.04684 6.64398 1.84684 5.97398ZM2.43684 11.384C1.23286 11.384 0.256836 12.36 0.256836 13.564C0.256836 14.768 1.23286 15.744 2.43684 15.744C3.64082 15.744 4.61684 14.768 4.61684 13.564C4.61684 12.36 3.64082 11.384 2.43684 11.384Z" fill="#616161"/>
</svg>
